<?xml version="1.0" encoding="utf-8"?>
<!-- Generator: Adobe Illustrator 25.2.0, SVG Export Plug-In . SVG Version: 6.00 Build 0)  -->
<svg version="1.1" id="Layer_1" xmlns="http://www.w3.org/2000/svg" xmlns:xlink="http://www.w3.org/1999/xlink" x="0px" y="0px"
	 viewBox="0 0 103.3 103.3" style="enable-background:new 0 0 103.3 103.3;" xml:space="preserve">
<style type="text/css">
	.st0{fill:none;}
	.st1{clip-path:url(#SVGID_2_);}
	.st2{fill:#00C8E1;}
	.st3{fill:#153C3F;}
</style>
<g id="Group_6" transform="translate(1 1)">
	<g id="Group_3" transform="translate(0 0.267)">
		<path id="Clip_2-2" class="st0" d="M-1-1.3h103.3V102H-1V-1.3z"/>
		<g>
			<defs>
				<rect id="SVGID_1_" x="-1" y="-1.3" width="103.3" height="103.3"/>
			</defs>
			<clipPath id="SVGID_2_">
				<use xlink:href="#SVGID_1_"  style="overflow:visible;"/>
			</clipPath>
			<g id="Group_3-2" class="st1">
				<path id="Fill_1" class="st2" d="M70.7,102c-14.6,0-30.4-8.3-46.8-24.8l-0.1-0.1C9.4,62.7,1.1,48.7-0.6,35.6
					c-2-14.9,4.7-24.2,8.9-28.4l4.5-4.5c2.6-2.6,6-4,9.7-4c3.9,0,7.6,1.6,10.3,4.3l12.5,12.5c5.6,5.6,5.6,14.7,0,20.3l-3.8,3.8
					c0.3,1.4,0.8,2.7,1.6,3.9c1.8,2.9,4,5.5,6.4,7.9l0.1,0.1c2.3,2.4,4.9,4.5,7.7,6.3c1.2,0.9,2.6,1.5,4.1,1.8l3.8-3.8
					c5.6-5.6,14.7-5.6,20.3,0L98,68.3c2.6,2.6,4.2,6.1,4.3,9.8c0.2,3.8-1.3,7.5-3.9,10.2l-4.5,4.5C87.7,98.8,79.3,102.1,70.7,102z
					 M22.4,3.7c-2.3,0-4.5,0.9-6.1,2.5l-4.5,4.5c-3.5,3.5-9.2,11.4-7.5,24.2c1.6,12,9.4,25.1,23,38.7l0.1,0.1
					C42.9,89.2,57.5,97,70.7,97c7.3,0.1,14.3-2.7,19.6-7.8l4.5-4.5c1.7-1.7,2.6-4.1,2.5-6.5c-0.1-2.4-1.1-4.7-2.8-6.4L81.9,59.3
					c-3.7-3.6-9.6-3.6-13.2,0l-4.2,4.2c-0.8,0.8-1.9,1.2-3,1.1c-3.8,0-9.6-3.6-15.6-9.6L45.9,55c-3.3-3.1-6-6.7-8.2-10.6
					c-2.2-4.5-1.4-6.8-0.2-7.9l4.2-4.2c3.6-3.7,3.6-9.6,0-13.2L29.2,6.6C27.4,4.8,25,3.8,22.4,3.7z"/>
			</g>
		</g>
	</g>
	<path id="Fill_4" class="st3" d="M70.8,97.3c-6.2,0-12.8-1.8-19.7-5.3c-7.7-3.9-15.7-10-23.7-18l-0.1-0.1
		C13.7,60.2,6,47.2,4.3,35.2C2.6,22.4,8.3,14.5,11.8,11l4.5-4.5C17.9,4.9,20.1,4,22.4,4c1.2,0,2.4,0.2,3.6,0.7
		c1.2,0.5,2.3,1.2,3.2,2.1l12.5,12.5c3.6,3.7,3.6,9.6,0,13.2l-4.2,4.2c-0.5,0.5-2.2,2.2-0.2,7c1.5,3.4,4.4,7.4,8.6,11.6l0.1,0.1
		c4.2,4.2,8.1,7.1,11.6,8.6c1.3,0.6,2.6,0.9,4,1c1.1,0.1,2.2-0.4,2.9-1.2l4.2-4.2c3.7-3.6,9.6-3.6,13.2,0l12.5,12.5
		c1.7,1.7,2.7,4,2.8,6.4c0.1,2.4-0.8,4.8-2.5,6.5l-4.5,4.5c-2.4,2.4-5.3,4.3-8.4,5.7C78.4,96.6,74.6,97.3,70.8,97.3z M22.4,9
		c-1,0-1.9,0.4-2.6,1l-4.5,4.5c-2.9,2.9-7.5,9.3-6,20c1.5,10.9,8.7,23,21.6,35.8l0.1,0.1C43.8,83.3,55.8,90.5,66.8,92
		c1.3,0.2,2.6,0.3,3.9,0.3c3.5,0,7-0.7,10.2-2.2c2.2-1,4.1-2.4,5.8-4.1l4.5-4.5c0.7-0.7,1.1-1.7,1-2.8c-0.1-1.2-0.5-2.3-1.4-3.1
		L78.4,63.1c-1.7-1.7-4.5-1.7-6.2,0l-4.2,4.2c-1.7,1.7-4,2.7-6.5,2.6c-5.3,0-11.9-3.8-19.1-11.1l-0.1-0.1c-2.4-2.4-4.7-5-6.6-7.8
		c-1.5-2.1-2.8-4.5-3.7-7c-0.7-1.9-0.9-4-0.6-6c0.3-1.8,1.2-3.5,2.5-4.8l4.2-4.2c1.7-1.7,1.7-4.4,0-6.1L25.6,10.4
		C24.8,9.5,23.6,9,22.4,9z"/>
</g>
</svg>
