<svg id="Atoms_Icons_36_Track_and_Trace" data-name="Atoms / Icons / 36 / Track and Trace" xmlns="http://www.w3.org/2000/svg" width="36" height="36" viewBox="0 0 36 36">
  <path id="Combined_Shape" data-name="Combined Shape" d="M28.382,34.133l-5.418-5.416A7.67,7.67,0,1,1,25.1,26.607L30.5,32.013l-2.12,2.12h0ZM14.057,22.318a4.677,4.677,0,1,0,4.676-4.676A4.682,4.682,0,0,0,14.057,22.318Zm-2.29,9.813H0V8.9L3.818,0H25.076L28.9,8.9v7.169h-3V10.68H3V29.131h8.769v3h0ZM15.947,7.68h9.161L23.1,3H15.947Zm-12.161,0h9.161V3H5.8Z" transform="translate(3 1)" fill="#00c8e1"/>
</svg>
